<svg width="138" height="33" viewBox="0 0 138 33" fill="none" xmlns="http://www.w3.org/2000/svg">
<path d="M0 5.55465C0 5.11421 0.350572 4.77274 0.783503 4.77274C1.23713 4.77274 1.58815 5.11421 1.58815 5.55465V6.95954C2.45445 5.71575 3.71228 4.65234 5.67125 4.65234C8.22832 4.65234 10.7651 6.61807 10.7651 10.0285V10.0692C10.7651 13.4591 8.24901 15.4656 5.67125 15.4656C3.69114 15.4656 2.41261 14.4219 1.58815 13.2582V17.7732C1.58815 18.2137 1.25827 18.5551 0.804201 18.5551C0.350572 18.5551 0 18.2137 0 17.7732V5.55465ZM9.13513 10.0889V10.0487C9.13513 7.60137 7.40342 6.03709 5.38234 6.03709C3.40267 6.03709 1.52561 7.66177 1.52561 10.0285V10.0692C1.52561 12.4763 3.40267 14.0813 5.38234 14.0813C7.44437 14.0813 9.13513 12.5967 9.13513 10.0889Z" fill="#1C274C"/>
<path d="M13.8369 1.28236C13.8369 0.861189 14.1879 0.5 14.6209 0.5C15.0749 0.5 15.4246 0.861189 15.4246 1.28236V14.563C15.4246 15.0048 15.0947 15.3454 14.6416 15.3454C14.1879 15.3454 13.8369 15.0048 13.8369 14.563V1.28236Z" fill="#1C274C"/>
<path d="M18.3125 12.2355V12.1956C18.3125 10.0092 20.1684 8.84555 22.8695 8.84555C24.2304 8.84555 25.1997 9.02636 26.1488 9.28643V8.92524C26.1488 7.05976 24.9734 6.09703 22.9725 6.09703C21.9001 6.09703 20.9933 6.33782 20.2089 6.67844C20.1063 6.71829 20.0037 6.73886 19.9209 6.73886C19.5496 6.73886 19.2193 6.43809 19.2193 6.07689C19.2193 5.75556 19.4466 5.51477 19.6522 5.43465C20.7048 4.99378 21.7764 4.73242 23.1377 4.73242C24.6431 4.73242 25.7974 5.11417 26.5818 5.87596C27.3036 6.57862 27.6749 7.58119 27.6749 8.90595V14.5834C27.6749 15.0247 27.3446 15.3451 26.9116 15.3451C26.458 15.3451 26.1488 15.0247 26.1488 14.6228V13.6806C25.4063 14.6228 24.1687 15.4655 22.2921 15.4655C20.3129 15.4655 18.3125 14.3619 18.3125 12.2355ZM26.1695 11.433V10.4304C25.3856 10.2093 24.3339 9.98908 23.0342 9.98908C21.0338 9.98908 19.9209 10.8314 19.9209 12.1356V12.1755C19.9209 13.4797 21.158 14.2419 22.6013 14.2419C24.5607 14.2419 26.1695 13.0782 26.1695 11.433Z" fill="#1C274C"/>
<path d="M30.5 18.2144C30.2525 18.1145 30.005 17.9136 30.005 17.5524C30.005 17.1711 30.3353 16.8904 30.6854 16.8904C30.8303 16.8904 30.9541 16.9307 31.0778 16.9714C31.387 17.0713 31.6962 17.1518 32.2322 17.1518C33.2222 17.1518 33.8 16.5695 34.3765 15.306L34.4593 15.1458L30.005 5.95724C29.9433 5.81628 29.9023 5.67661 29.9023 5.53607C29.9023 5.11491 30.2525 4.77344 30.7065 4.77344C31.1395 4.77344 31.3658 5.03436 31.5103 5.37497L35.2226 13.5203L38.5218 5.35527C38.6455 5.03436 38.8728 4.77344 39.285 4.77344C39.7179 4.77344 40.0689 5.11491 40.0689 5.53607C40.0689 5.65604 40.0271 5.797 39.9861 5.9174L35.8202 15.5862C34.8923 17.7332 33.8617 18.516 32.2529 18.516C31.5517 18.516 31.0364 18.3952 30.5 18.2144Z" fill="#1C274C"/>
<path d="M49.1406 1.28236C49.1406 0.861189 49.4916 0.5 49.9246 0.5C50.3786 0.5 50.7288 0.861189 50.7288 1.28236V14.563C50.7288 15.0048 50.3985 15.3454 49.9453 15.3454C49.4916 15.3454 49.1406 15.0048 49.1406 14.563V1.28236Z" fill="#1C274C"/>
<path d="M54.4199 1.62383C54.4199 1.12211 54.8321 0.800781 55.3479 0.800781C55.8839 0.800781 56.2965 1.12211 56.2965 1.62383V1.88519C56.2965 2.36634 55.8839 2.70738 55.3479 2.70738C54.8322 2.70738 54.4199 2.36634 54.4199 1.88519V1.62383ZM54.5639 5.55529C54.5639 5.13455 54.9149 4.77338 55.3479 4.77338C55.802 4.77338 56.1521 5.11485 56.1521 5.55529V14.563C56.1521 15.0052 55.8218 15.3458 55.3686 15.3458C54.915 15.3458 54.5639 15.0052 54.5639 14.563V5.55529Z" fill="#1C274C"/>
<path d="M59.8428 1.28236C59.8428 0.861189 60.1929 0.5 60.6258 0.5C61.0799 0.5 61.4309 0.861189 61.4309 1.28236V10.7918L67.2048 5.07414C67.3906 4.87405 67.5761 4.77294 67.8236 4.77294C68.2565 4.77294 68.545 5.11442 68.545 5.49531C68.545 5.73652 68.4419 5.89676 68.2358 6.09729L64.7508 9.42763L68.5657 14.102C68.7101 14.2828 68.7722 14.4225 68.7722 14.6235C68.7722 15.0446 68.4419 15.3454 68.009 15.3454C67.7201 15.3454 67.5342 15.2456 67.3285 14.9842L63.6365 10.4503L61.4309 12.5772V14.563C61.4309 15.0048 61.1006 15.3454 60.647 15.3454C60.1929 15.3454 59.8428 15.0048 59.8428 14.563V1.28236Z" fill="#1C274C"/>
<path d="M75.784 15.4857C72.8552 15.4857 70.4629 13.2989 70.4629 10.089V10.0491C70.4629 7.05981 72.6289 4.65234 75.5779 4.65234C78.733 4.65234 80.5269 7.16007 80.5269 9.90815C80.5269 10.3297 80.1767 10.6305 79.7843 10.6305H72.0722C72.2986 12.8777 73.9277 14.1417 75.825 14.1417C77.1449 14.1417 78.1143 13.64 78.8978 12.9382C79.0211 12.8375 79.166 12.7578 79.3514 12.7578C79.7434 12.7578 80.0525 13.0585 80.0525 13.4197C80.0525 13.6001 79.9702 13.7809 79.8055 13.9215C78.7947 14.8636 77.599 15.4857 75.784 15.4857ZM78.9387 9.48741C78.774 7.60181 77.6606 5.95655 75.5365 5.95655C73.6806 5.95655 72.2779 7.46126 72.0722 9.48741H78.9387Z" fill="#1C274C"/>
<path d="M89.5176 5.55465C89.5176 5.13391 89.8677 4.77274 90.3006 4.77274C90.7547 4.77274 91.1057 5.11421 91.1057 5.55465V6.61807C91.806 5.59536 92.7551 4.65234 94.5493 4.65234C96.2811 4.65234 97.3949 5.55465 97.9723 6.71833C98.7355 5.57522 99.8696 4.65234 101.726 4.65234C104.18 4.65234 105.685 6.25731 105.685 8.82545V14.5624C105.685 15.0046 105.334 15.3452 104.901 15.3452C104.447 15.3452 104.097 15.0046 104.097 14.5624V9.18664C104.097 7.1802 103.066 6.05638 101.334 6.05638C99.7251 6.05638 98.4052 7.22004 98.4052 9.26675V14.5624C98.4052 15.0046 98.0551 15.3452 97.601 15.3452C97.1681 15.3452 96.8179 15.0046 96.8179 14.5624V9.14636C96.8179 7.20077 95.7658 6.05638 94.0746 6.05638C92.3838 6.05638 91.1057 7.42056 91.1057 9.32717V14.5624C91.1057 15.0046 90.7754 15.3452 90.3218 15.3452C89.8677 15.3452 89.5176 15.0046 89.5176 14.5624V5.55465Z" fill="#1C274C"/>
<path d="M118.264 14.5635C118.264 14.9847 117.934 15.3459 117.48 15.3459C117.047 15.3459 116.696 15.0053 116.696 14.5635V13.4406C115.975 14.5635 114.882 15.4663 113.046 15.4663C110.468 15.4663 108.963 13.7816 108.963 11.3137V5.55579C108.963 5.11492 109.293 4.77344 109.747 4.77344C110.18 4.77344 110.551 5.11491 110.551 5.55579V10.9328C110.551 12.8587 111.623 14.0618 113.5 14.0618C115.315 14.0618 116.696 12.7585 116.696 10.8125V5.55579C116.696 5.11492 117.026 4.77344 117.48 4.77344C117.913 4.77344 118.264 5.11491 118.264 5.55579V14.5635Z" fill="#1C274C"/>
<path d="M121.832 5.55465C121.832 5.13391 122.182 4.77274 122.615 4.77274C123.069 4.77274 123.42 5.11421 123.42 5.55465V6.61807C124.12 5.59536 125.07 4.65234 126.864 4.65234C128.596 4.65234 129.709 5.55465 130.287 6.71833C131.05 5.57522 132.184 4.65234 134.04 4.65234C136.494 4.65234 138 6.25731 138 8.82545V14.5624C138 15.0046 137.649 15.3452 137.216 15.3452C136.762 15.3452 136.412 15.0046 136.412 14.5624V9.18664C136.412 7.1802 135.381 6.05638 133.648 6.05638C132.04 6.05638 130.72 7.22004 130.72 9.26675V14.5624C130.72 15.0046 130.37 15.3452 129.915 15.3452C129.483 15.3452 129.132 15.0046 129.132 14.5624V9.14636C129.132 7.20077 128.08 6.05638 126.389 6.05638C124.698 6.05638 123.42 7.42056 123.42 9.32717V14.5624C123.42 15.0046 123.09 15.3452 122.636 15.3452C122.182 15.3452 121.832 15.0046 121.832 14.5624V5.55465Z" fill="#1C274C"/>
<path d="M13.566 24.3597H11.4212C11.21 24.3597 11.0303 24.1953 11.0303 23.9896C11.0303 23.784 11.21 23.6094 11.4212 23.6094H16.5561C16.7674 23.6094 16.947 23.784 16.947 23.9896C16.947 24.1953 16.7674 24.3597 16.5561 24.3597H14.4113V30.4446C14.4113 30.6708 14.221 30.8558 13.9887 30.8558C13.7562 30.8558 13.566 30.6708 13.566 30.4446V24.3597Z" fill="#1C274C"/>
<path d="M18.1621 23.65C18.1621 23.4341 18.3416 23.249 18.5635 23.249C18.796 23.249 18.9755 23.4341 18.9755 23.65V26.4148C19.3348 25.8393 19.9054 25.3767 20.8457 25.3767C22.1663 25.3767 22.9376 26.2402 22.9376 27.5043V30.4545C22.9376 30.6803 22.7581 30.8553 22.5362 30.8553C22.3037 30.8553 22.1242 30.6803 22.1242 30.4545V27.6997C22.1242 26.713 21.5747 26.0963 20.6132 26.0963C19.6729 26.0963 18.9755 26.7643 18.9755 27.7613V30.4545C18.9755 30.6803 18.8065 30.8553 18.5742 30.8553C18.3416 30.8553 18.1621 30.6803 18.1621 30.4545V23.65Z" fill="#1C274C"/>
<path d="M27.0588 30.9275C25.5585 30.9275 24.333 29.8069 24.333 28.1623V28.1419C24.333 26.6105 25.4424 25.377 26.9532 25.377C28.5697 25.377 29.4889 26.6618 29.4889 28.07C29.4889 28.2858 29.3094 28.44 29.1085 28.44H25.1571C25.2734 29.5911 26.1079 30.2385 27.0799 30.2385C27.7561 30.2385 28.2528 29.9815 28.6543 29.6219C28.7176 29.5707 28.7916 29.5295 28.8867 29.5295C29.0874 29.5295 29.2459 29.6838 29.2459 29.8688C29.2459 29.9611 29.2036 30.0538 29.1192 30.1258C28.6014 30.6086 27.9886 30.9275 27.0588 30.9275ZM28.6753 27.8542C28.5909 26.8878 28.0203 26.045 26.932 26.045C25.9812 26.045 25.2627 26.8159 25.1571 27.8542H28.6753Z" fill="#1C274C"/>
<path d="M39.2935 30.4545C39.2935 30.6803 39.1138 30.8553 38.8919 30.8553C38.6596 30.8553 38.4799 30.6803 38.4799 30.4545V29.7347C38.0362 30.3721 37.3916 30.9169 36.388 30.9169C35.0777 30.9169 33.7783 29.9094 33.7783 28.1621V28.1417C33.7783 26.4046 35.0777 25.3767 36.388 25.3767C37.4023 25.3767 38.0573 25.9113 38.4799 26.5074V23.65C38.4799 23.4239 38.6489 23.249 38.8814 23.249C39.1138 23.249 39.2935 23.4239 39.2935 23.65V30.4545ZM34.6129 28.1313V28.1521C34.6129 29.4058 35.5109 30.2075 36.5359 30.2075C37.5502 30.2075 38.5117 29.375 38.5117 28.1521V28.1313C38.5117 26.9082 37.5502 26.0859 36.5359 26.0859C35.4793 26.0859 34.6129 26.8466 34.6129 28.1313Z" fill="#1C274C"/>
<path d="M40.7734 28.1727V28.1523C40.7734 26.6514 41.9779 25.377 43.6261 25.377C45.2638 25.377 46.4681 26.6309 46.4681 28.1315V28.1523C46.4681 29.653 45.2531 30.9275 43.605 30.9275C41.9673 30.9275 40.7734 29.6734 40.7734 28.1727ZM45.6335 28.1727V28.1523C45.6335 27.0113 44.7567 26.0759 43.605 26.0759C42.4216 26.0759 41.608 27.0113 41.608 28.1315V28.1523C41.608 29.2929 42.4744 30.2181 43.6261 30.2181C44.8095 30.2181 45.6335 29.2929 45.6335 28.1727Z" fill="#1C274C"/>
<path d="M48.0107 23.65C48.0107 23.4341 48.1903 23.249 48.4121 23.249C48.6446 23.249 48.8242 23.4341 48.8242 23.65V30.4545C48.8242 30.6803 48.6551 30.8553 48.4228 30.8553C48.1903 30.8553 48.0107 30.6803 48.0107 30.4545V23.65Z" fill="#1C274C"/>
<path d="M50.7891 23.65C50.7891 23.4341 50.9686 23.249 51.1904 23.249C51.423 23.249 51.6025 23.4341 51.6025 23.65V30.4545C51.6025 30.6803 51.4334 30.8553 51.2011 30.8553C50.9686 30.8553 50.7891 30.6803 50.7891 30.4545V23.65Z" fill="#1C274C"/>
<path d="M53.1987 30.2384C53.1247 30.1873 53.0508 30.0845 53.0508 29.9507C53.0508 29.7657 53.2093 29.6117 53.41 29.6117C53.484 29.6117 53.5579 29.6322 53.6107 29.6733C54.1708 30.0434 54.7519 30.2384 55.3435 30.2384C55.9986 30.2384 56.4741 29.9095 56.4741 29.3959V29.3752C56.4741 28.8408 55.8295 28.635 55.1112 28.44C54.2553 28.2034 53.3044 27.9157 53.3044 26.9393V26.9187C53.3044 26.0039 54.0862 25.3975 55.164 25.3975C55.7451 25.3975 56.379 25.5721 56.9073 25.8497C57.0129 25.9114 57.108 26.0245 57.108 26.1786C57.108 26.3636 56.9496 26.5179 56.7487 26.5179C56.6748 26.5179 56.6115 26.4973 56.5692 26.4767C56.1043 26.2197 55.6077 26.0655 55.1428 26.0655C54.4983 26.0655 54.0862 26.3944 54.0862 26.8364V26.857C54.0862 27.3606 54.7624 27.556 55.4914 27.7718C56.3367 28.0184 57.2454 28.3373 57.2454 29.2929V29.3136C57.2454 30.3208 56.3896 30.9066 55.3012 30.9066C54.5829 30.9066 53.7904 30.6497 53.1987 30.2384Z" fill="#1C274C"/>
<path d="M61.9258 25.8395C61.9258 25.6133 62.1053 25.4387 62.3272 25.4387C62.5597 25.4387 62.7392 25.6133 62.7392 25.8395V26.5589C63.1831 25.9217 63.8276 25.377 64.8313 25.377C66.1413 25.377 67.4411 26.3843 67.4411 28.1315V28.1523C67.4411 29.8892 66.152 30.9171 64.8313 30.9171C63.817 30.9171 63.1619 30.3827 62.7392 29.7865V32.0992C62.7392 32.3251 62.5702 32.5001 62.3378 32.5001C62.1053 32.5001 61.9258 32.3251 61.9258 32.0992V25.8395ZM66.6064 28.1623V28.1419C66.6064 26.8878 65.7186 26.0861 64.6834 26.0861C63.6691 26.0861 62.7076 26.9188 62.7076 28.1315V28.1523C62.7076 29.3856 63.6691 30.2077 64.6834 30.2077C65.74 30.2077 66.6064 29.4472 66.6064 28.1623Z" fill="#1C274C"/>
<path d="M68.9414 25.8394C68.9414 25.6236 69.1209 25.4385 69.3428 25.4385C69.5753 25.4385 69.7548 25.6132 69.7548 25.8394V26.8363C70.1562 25.9525 70.9487 25.418 71.6355 25.418C71.8787 25.418 72.0369 25.5926 72.0369 25.8188C72.0369 26.0346 71.889 26.1889 71.6778 26.2197C70.6212 26.343 69.7548 27.1139 69.7548 28.6453V30.4545C69.7548 30.6703 69.586 30.8554 69.3535 30.8554C69.1209 30.8554 68.9414 30.6804 68.9414 30.4545V25.8394Z" fill="#1C274C"/>
<path d="M72.5439 29.262V29.2416C72.5439 28.121 73.4946 27.5251 74.879 27.5251C75.5762 27.5251 76.0728 27.6175 76.5588 27.7513V27.5663C76.5588 26.6103 75.9566 26.1168 74.9316 26.1168C74.3823 26.1168 73.9173 26.2402 73.5159 26.4149C73.463 26.4355 73.4103 26.4457 73.368 26.4457C73.1778 26.4457 73.0086 26.2916 73.0086 26.1066C73.0086 25.9421 73.1249 25.8188 73.2305 25.7777C73.7694 25.5515 74.319 25.418 75.0162 25.418C75.7873 25.418 76.3793 25.6132 76.7807 26.0039C77.1504 26.3635 77.3406 26.8775 77.3406 27.5559V30.4646C77.3406 30.6908 77.1717 30.8554 76.9499 30.8554C76.7174 30.8554 76.5588 30.6908 76.5588 30.4853V30.0021C76.1784 30.4853 75.5445 30.9169 74.5828 30.9169C73.5689 30.9169 72.5439 30.3515 72.5439 29.262ZM76.5695 28.8508V28.3372C76.1677 28.2241 75.6291 28.111 74.9633 28.111C73.9386 28.111 73.368 28.5426 73.368 29.2108V29.2312C73.368 29.8994 74.0019 30.2899 74.7414 30.2899C75.7454 30.2899 76.5695 29.6937 76.5695 28.8508Z" fill="#1C274C"/>
<path d="M79.0742 25.8395C79.0742 25.6237 79.2538 25.4387 79.4756 25.4387C79.7081 25.4387 79.8876 25.6133 79.8876 25.8395V26.3843C80.2471 25.8601 80.7331 25.377 81.6521 25.377C82.5398 25.377 83.1101 25.8395 83.4062 26.4356C83.7969 25.8497 84.3782 25.377 85.3289 25.377C86.5863 25.377 87.3574 26.1992 87.3574 27.5149V30.4547C87.3574 30.6805 87.1779 30.8555 86.9561 30.8555C86.7236 30.8555 86.544 30.6805 86.544 30.4547V27.6999C86.544 26.672 86.0157 26.0965 85.1283 26.0965C84.3042 26.0965 83.628 26.6926 83.628 27.7411V30.4547C83.628 30.6805 83.4482 30.8555 83.216 30.8555C82.9938 30.8555 82.8143 30.6805 82.8143 30.4547V27.6795C82.8143 26.6824 82.2757 26.0965 81.4093 26.0965C80.5429 26.0965 79.8877 26.7953 79.8877 27.7718V30.4547C79.8877 30.6805 79.7188 30.8555 79.4863 30.8555C79.2538 30.8555 79.0742 30.6805 79.0742 30.4547L79.0742 25.8395Z" fill="#1C274C"/>
<path d="M92.292 25.8395C92.292 25.6133 92.4715 25.4387 92.6934 25.4387C92.9259 25.4387 93.1054 25.6133 93.1054 25.8395V26.5589C93.5491 25.9217 94.1937 25.377 95.1973 25.377C96.5077 25.377 97.8071 26.3843 97.8071 28.1315V28.1523C97.8071 29.8892 96.518 30.9171 95.1973 30.9171C94.183 30.9171 93.5281 30.3827 93.1054 29.7865V32.0992C93.1054 32.3251 92.9365 32.5001 92.704 32.5001C92.4715 32.5001 92.292 32.3251 92.292 32.0992V25.8395ZM96.9724 28.1623V28.1419C96.9724 26.8878 96.085 26.0861 95.0494 26.0861C94.0351 26.0861 93.0738 26.9188 93.0738 28.1315V28.1523C93.0738 29.3856 94.0351 30.2077 95.0494 30.2077C96.106 30.2077 96.9724 29.4472 96.9724 28.1623Z" fill="#1C274C"/>
<path d="M101.695 30.9275C100.195 30.9275 98.9697 29.8069 98.9697 28.1623V28.1419C98.9697 26.6105 100.079 25.377 101.59 25.377C103.206 25.377 104.126 26.6618 104.126 28.07C104.126 28.2858 103.946 28.44 103.745 28.44H99.7938C99.9101 29.5911 100.745 30.2385 101.717 30.2385C102.393 30.2385 102.889 29.9815 103.291 29.6219C103.354 29.5707 103.428 29.5295 103.524 29.5295C103.724 29.5295 103.883 29.6838 103.883 29.8688C103.883 29.9611 103.84 30.0538 103.756 30.1258C103.238 30.6086 102.625 30.9275 101.695 30.9275ZM103.312 27.8542C103.227 26.8878 102.657 26.045 101.569 26.045C100.618 26.045 99.8994 26.8159 99.7938 27.8542H103.312Z" fill="#1C274C"/>
<path d="M105.225 28.1727V28.1523C105.225 26.6514 106.429 25.377 108.077 25.377C109.715 25.377 110.919 26.6309 110.919 28.1315V28.1523C110.919 29.653 109.704 30.9275 108.056 30.9275C106.418 30.9275 105.225 29.6734 105.225 28.1727ZM110.085 28.1727V28.1523C110.085 27.0113 109.208 26.0759 108.056 26.0759C106.873 26.0759 106.059 27.0113 106.059 28.1315V28.1523C106.059 29.2929 106.926 30.2181 108.077 30.2181C109.26 30.2181 110.085 29.2929 110.085 28.1727Z" fill="#1C274C"/>
<path d="M112.389 25.8395C112.389 25.6133 112.568 25.4387 112.79 25.4387C113.023 25.4387 113.202 25.6133 113.202 25.8395V26.5589C113.646 25.9217 114.29 25.377 115.294 25.377C116.604 25.377 117.904 26.3843 117.904 28.1315V28.1523C117.904 29.8892 116.615 30.9171 115.294 30.9171C114.28 30.9171 113.625 30.3827 113.202 29.7865V32.0992C113.202 32.3251 113.033 32.5001 112.801 32.5001C112.568 32.5001 112.389 32.3251 112.389 32.0992V25.8395ZM117.069 28.1623V28.1419C117.069 26.8878 116.182 26.0861 115.146 26.0861C114.132 26.0861 113.17 26.9188 113.17 28.1315V28.1523C113.17 29.3856 114.132 30.2077 115.146 30.2077C116.203 30.2077 117.069 29.4472 117.069 28.1623Z" fill="#1C274C"/>
<path d="M119.478 23.65C119.478 23.4341 119.657 23.249 119.879 23.249C120.111 23.249 120.291 23.4341 120.291 23.65V30.4545C120.291 30.6803 120.122 30.8553 119.89 30.8553C119.657 30.8553 119.478 30.6803 119.478 30.4545V23.65Z" fill="#1C274C"/>
<path d="M124.57 30.9275C123.07 30.9275 121.845 29.8069 121.845 28.1623V28.1419C121.845 26.6105 122.954 25.377 124.465 25.377C126.081 25.377 127.001 26.6618 127.001 28.07C127.001 28.2858 126.821 28.44 126.62 28.44H122.669C122.785 29.5911 123.62 30.2385 124.592 30.2385C125.268 30.2385 125.764 29.9815 126.166 29.6219C126.229 29.5707 126.303 29.5295 126.399 29.5295C126.599 29.5295 126.758 29.6838 126.758 29.8688C126.758 29.9611 126.715 30.0538 126.631 30.1258C126.113 30.6086 125.5 30.9275 124.57 30.9275ZM126.187 27.8542C126.102 26.8878 125.532 26.045 124.444 26.045C123.493 26.045 122.774 26.8159 122.669 27.8542H126.187Z" fill="#1C274C"/>
</svg>
