<svg width="50" height="51" viewBox="0 0 50 51" fill="none" xmlns="http://www.w3.org/2000/svg">
<path d="M25 50.5C38.8071 50.5 50 39.3071 50 25.5C50 11.6929 38.8071 0.5 25 0.5C11.1929 0.5 0 11.6929 0 25.5C0 39.3071 11.1929 50.5 25 50.5Z" fill="#9A3CBC"/>
<path d="M20.782 13.509C20.9315 13.547 21.083 13.5657 21.2345 13.5657C21.6382 13.5657 22.041 13.4325 22.4021 13.1743C22.8828 12.8309 23.2332 12.3043 23.3887 11.6915C23.5443 11.0787 23.4875 10.4487 23.2287 9.91759C22.9615 9.36873 22.5124 8.98991 21.9644 8.85072C20.852 8.5686 19.6837 9.3841 19.3576 10.6682C19.0316 11.9526 19.6707 13.2269 20.782 13.509ZM19.96 10.8212C20.1711 9.98951 20.8315 9.41607 21.5145 9.41607C21.6135 9.41607 21.7129 9.42811 21.8114 9.45319C22.1792 9.54656 22.4841 9.80804 22.67 10.1897C22.8645 10.5889 22.9058 11.068 22.7863 11.5386C22.6669 12.0091 22.4021 12.4105 22.0408 12.6688C21.6955 12.9155 21.3024 13 20.9349 12.9066C20.1558 12.7088 19.7184 11.7733 19.96 10.8212Z" fill="white"/>
<path d="M32.8637 22.0184C32.9873 22.0497 33.1115 22.0647 33.2347 22.0647C34.0302 22.0647 34.7858 21.4393 35.0182 20.524C35.2865 19.4665 34.7569 18.4163 33.8374 18.1829C33.3822 18.0674 32.9047 18.1658 32.4936 18.4595C32.0985 18.7419 31.8105 19.1745 31.6828 19.6773C31.5551 20.1801 31.6019 20.6976 31.8147 21.1345C32.036 21.5889 32.4085 21.9028 32.8637 22.0184ZM32.2853 19.8302C32.3767 19.4695 32.5792 19.1623 32.855 18.9651C33.0464 18.8284 33.2563 18.7577 33.4635 18.7577C33.5378 18.7577 33.6118 18.7668 33.6844 18.7853C34.2717 18.9344 34.5999 19.6457 34.4158 20.371C34.2317 21.0963 33.6033 21.5658 33.0166 21.4159C32.7417 21.3462 32.5133 21.1496 32.3735 20.8623C32.225 20.5574 32.1936 20.191 32.2853 19.8302Z" fill="white"/>
<path d="M38.3186 38.5587C38.3126 38.4952 38.3005 38.4256 38.2817 38.3463C37.7365 36.0612 37.1564 33.7548 36.5572 31.4911L36.4165 30.9579C36.1645 30.0019 35.904 29.0136 35.6234 28.0491C35.5104 27.6604 35.4045 27.2704 35.2986 26.8804C35.1077 26.1771 34.9103 25.4498 34.672 24.7458C34.5168 24.2879 34.3346 23.8165 33.9665 23.5261C33.6648 23.288 33.2707 23.162 32.8267 23.162C32.0469 23.162 31.2136 23.5437 30.7532 24.1117C30.1642 24.8384 29.7815 25.7816 29.4116 26.6939C29.2705 27.0418 29.1372 27.3703 28.9928 27.6883C28.605 28.542 28.2246 29.4199 27.8568 30.269C27.5853 30.8955 27.3138 31.5222 27.037 32.1451L26.7694 32.7487L26.7508 32.6022C26.5594 31.0943 26.3576 29.6489 26.1509 28.3063C25.1309 21.6759 24.0296 17.6362 22.8776 16.2996C22.0697 15.363 21.0174 14.8037 20.0628 14.8037C19.5925 14.8037 19.1411 14.9344 18.7208 15.192C18.1246 15.5577 17.635 16.1598 17.3048 16.9334C16.9034 17.8751 16.6539 18.916 16.4113 19.9283C16.2923 20.4243 16.1798 20.8929 16.0501 21.3523L14.6945 26.1468C14.1512 28.0705 13.5265 30.2119 12.9223 32.2828L12.8954 32.3751C12.2874 34.4588 11.6587 36.6133 11.1116 38.5504C11.085 38.6449 11.0967 38.7438 11.1446 38.8294C11.1924 38.915 11.2707 38.9767 11.3652 39.0034C11.3985 39.0127 11.4321 39.0176 11.465 39.0176C11.6285 39.0176 11.7737 38.9075 11.8183 38.7499C12.3548 36.85 12.9714 34.7359 13.5678 32.6913L13.6201 32.5121C14.2271 30.4315 14.8548 28.2803 15.4011 26.3462L16.7568 21.5517C16.8886 21.0855 17.0063 20.5951 17.1202 20.1207L17.1266 20.0938C17.3611 19.1163 17.6034 18.1054 17.9806 17.2215C18.1686 16.7805 18.516 16.1789 19.1047 15.8179C19.4011 15.636 19.7238 15.5437 20.0635 15.5437C20.8105 15.5437 21.6544 16.0056 22.3212 16.7792C23.0505 17.6251 24.181 20.3308 25.4253 28.4179C25.693 30.1581 25.9499 32.0506 26.1888 34.0428L26.1903 34.054L26.1856 34.0643C25.7409 35.0675 25.2972 36.0706 24.8549 37.0744C24.7497 37.3127 24.6057 37.639 24.6667 38.0016C24.7629 38.5773 25.3163 38.9138 25.8133 38.9484C25.8609 38.9518 25.9099 38.9534 25.9597 38.9534C26.4605 38.9534 26.9018 38.7898 27.14 38.5154C27.4388 38.1715 27.3557 37.6174 27.2823 37.1284C27.2652 37.0145 27.2488 36.9055 27.2383 36.8045C27.15 35.9613 27.0511 35.0778 26.9444 34.1788L26.943 34.1676L27.7083 32.442C28.7618 30.204 29.7488 27.8835 30.7033 25.6393L30.851 25.2921C31.1989 24.474 31.6619 24.0875 32.4489 23.9581C32.586 23.9357 32.7067 23.9247 32.8177 23.9247C32.9834 23.9247 33.1278 23.9487 33.2589 23.998C33.6934 24.1615 33.8293 24.5333 33.9405 24.9323C34.0358 25.2739 34.1384 25.6138 34.2409 25.9536C34.3088 26.1788 34.3768 26.4041 34.4426 26.6298C34.7726 27.7633 35.0974 28.9121 35.408 30.0443C36.0307 32.3149 36.6259 34.6269 37.177 36.9162C37.2932 37.3993 37.4081 37.8826 37.521 38.3665C37.5608 38.5371 37.606 38.7307 37.7248 38.8707C37.8036 38.9635 37.926 39.0234 38.0365 39.0236C38.0895 39.0236 38.1374 39.0103 38.179 38.9842C38.2917 38.9132 38.3387 38.7701 38.3186 38.5587ZM26.5673 38.0145C26.5577 38.0317 26.5463 38.0487 26.5329 38.0647C26.4774 38.1313 26.3918 38.177 26.2711 38.2045C26.1872 38.2237 26.1007 38.2336 26.014 38.2336C25.9063 38.2336 25.7997 38.2186 25.6972 38.1891C25.6342 38.1709 25.543 38.1387 25.479 38.0696C25.382 37.9641 25.3636 37.7914 25.43 37.6073C25.6166 37.0878 25.857 36.5767 26.0893 36.0825L26.1714 35.9075C26.1923 35.8632 26.2354 35.8357 26.284 35.8357C26.3491 35.8357 26.4015 35.8822 26.4086 35.9465C26.4287 36.1286 26.4477 36.3107 26.4667 36.4928C26.4862 36.6803 26.5058 36.8676 26.5266 37.055L26.5387 37.1658C26.5543 37.3087 26.57 37.4519 26.5889 37.5943L26.5954 37.6409C26.6127 37.761 26.6323 37.8972 26.5673 38.0145Z" fill="white"/>
</svg>
