<svg width="30" height="31" viewBox="0 0 30 31" fill="none" xmlns="http://www.w3.org/2000/svg">
<path d="M14.1023 4.81671C14.3904 4.23303 14.5345 3.9412 14.7301 3.84795C14.9002 3.76683 15.0979 3.76683 15.268 3.84795C15.4636 3.9412 15.6076 4.23303 15.8958 4.81671L18.6291 10.3542C18.7142 10.5265 18.7567 10.6126 18.8188 10.6795C18.8739 10.7388 18.9399 10.7867 19.0132 10.8208C19.096 10.8593 19.191 10.8732 19.3812 10.901L25.4953 11.7947C26.1391 11.8888 26.461 11.9359 26.61 12.0931C26.7396 12.2299 26.8006 12.4179 26.7759 12.6048C26.7475 12.8195 26.5145 13.0465 26.0484 13.5005L21.6258 17.8081C21.488 17.9424 21.419 18.0095 21.3746 18.0894C21.3352 18.1601 21.3099 18.2378 21.3002 18.3182C21.2892 18.409 21.3054 18.5038 21.338 18.6935L22.3815 24.7777C22.4915 25.4194 22.5466 25.7403 22.4431 25.9307C22.3532 26.0963 22.1932 26.2125 22.0079 26.2469C21.7948 26.2864 21.5067 26.1349 20.9304 25.8318L15.4645 22.9574C15.2942 22.8678 15.209 22.823 15.1193 22.8054C15.0399 22.7898 14.9582 22.7898 14.8788 22.8054C14.7891 22.823 14.7039 22.8678 14.5336 22.9574L9.06768 25.8318C8.49142 26.1349 8.20329 26.2864 7.99024 26.2469C7.80488 26.2125 7.64493 26.0963 7.55495 25.9307C7.45152 25.7403 7.50655 25.4194 7.61662 24.7777L8.66013 18.6935C8.69266 18.5038 8.70893 18.409 8.69792 18.3182C8.68818 18.2378 8.66291 18.1601 8.62353 18.0894C8.57905 18.0095 8.51012 17.9424 8.37226 17.8081L3.94972 13.5005C3.4836 13.0465 3.25054 12.8195 3.22218 12.6048C3.19751 12.4179 3.25847 12.2299 3.38809 12.0931C3.53707 11.9359 3.85899 11.8888 4.50283 11.7947L10.6169 10.901C10.8071 10.8732 10.9021 10.8593 10.9849 10.8208C11.0582 10.7867 11.1242 10.7388 11.1793 10.6795C11.2414 10.6126 11.2839 10.5265 11.369 10.3542L14.1023 4.81671Z" fill="#F68026" stroke="#F68026" stroke-width="2" stroke-linecap="round" stroke-linejoin="round"/>
</svg>
