<svg width="30" height="31" viewBox="0 0 30 31" fill="none" xmlns="http://www.w3.org/2000/svg">
<path d="M7.1747 20.5C7.3122 19.8875 7.0622 19.0125 6.6247 18.575L3.5872 15.5375C2.6372 14.5875 2.2622 13.575 2.5372 12.7C2.8247 11.825 3.7122 11.225 5.0372 11L8.9372 10.35C9.4997 10.25 10.1872 9.75 10.4497 9.2375L12.5997 4.925C13.2247 3.6875 14.0747 3 14.9997 3C15.9247 3 16.7747 3.6875 17.3997 4.925L19.5497 9.2375C19.7122 9.5625 20.0497 9.875 20.4122 10.0875L6.9497 23.55C6.7747 23.725 6.4747 23.5625 6.5247 23.3125L7.1747 20.5Z" fill="#F68026"/>
<path d="M23.375 18.5754C22.925 19.0254 22.675 19.8879 22.825 20.5004L23.6875 24.2629C24.05 25.8254 23.825 27.0004 23.05 27.5629C22.7375 27.7879 22.3625 27.9004 21.925 27.9004C21.2875 27.9004 20.5375 27.6629 19.7125 27.1754L16.05 25.0004C15.475 24.6629 14.525 24.6629 13.95 25.0004L10.2875 27.1754C8.9 27.9879 7.7125 28.1254 6.95 27.5629C6.6625 27.3504 6.45 27.0629 6.3125 26.6879L21.5125 11.4879C22.0875 10.9129 22.9 10.6504 23.6875 10.7879L24.95 11.0004C26.275 11.2254 27.1625 11.8254 27.45 12.7004C27.725 13.5754 27.35 14.5879 26.4 15.5379L23.375 18.5754Z" fill="#F68026" fill-opacity="0.2"/>
</svg>
